<?xml version="1.0" encoding="UTF-8" standalone="no"?>
<!DOCTYPE svg PUBLIC "-//W3C//DTD SVG 1.1//EN"
 "http://www.w3.org/Graphics/SVG/1.1/DTD/svg11.dtd">
<!-- Generated by graphviz version 2.40.1 (20161225.0304)
 -->
<!-- Title: Search Pages: 1 -->
<svg width="356pt" height="302pt"
 viewBox="0.00 0.00 356.31 302.00" xmlns="http://www.w3.org/2000/svg" xmlns:xlink="http://www.w3.org/1999/xlink">
<g id="graph0" class="graph" transform="scale(1 1) rotate(0) translate(4 298)">
<title>Search</title>
<polygon fill="#ffffff" stroke="transparent" points="-4,4 -4,-298 352.3086,-298 352.3086,4 -4,4"/>
<!-- 5c4c227f&#45;eac4&#45;4ab8&#45;ae10&#45;ceb2e746d041 -->
<g id="node1" class="node">
<title>5c4c227f&#45;eac4&#45;4ab8&#45;ae10&#45;ceb2e746d041</title>
<ellipse fill="none" stroke="#000000" cx="183.7815" cy="-276" rx="38.211" ry="18"/>
<text text-anchor="middle" x="183.7815" y="-271.8" font-family="Times,serif" font-size="14.00" fill="#000000">(10, 10)</text>
</g>
<!-- (10, 11) -->
<g id="node2" class="node">
<title>(10, 11)</title>
<ellipse fill="none" stroke="#000000" cx="37.7815" cy="-190" rx="37.5643" ry="18"/>
<text text-anchor="middle" x="37.7815" y="-185.8" font-family="Times,serif" font-size="14.00" fill="#000000">(10, 11)</text>
</g>
<!-- 5c4c227f&#45;eac4&#45;4ab8&#45;ae10&#45;ceb2e746d041&#45;&gt;(10, 11) -->
<g id="edge1" class="edge">
<title>5c4c227f&#45;eac4&#45;4ab8&#45;ae10&#45;ceb2e746d041&#45;&gt;(10, 11)</title>
<path fill="none" stroke="#000000" d="M159.6726,-261.7988C135.3685,-247.4828 97.6834,-225.2847 70.6508,-209.3613"/>
<polygon fill="#000000" stroke="#000000" points="72.319,-206.2819 61.9263,-204.2222 68.7662,-212.3134 72.319,-206.2819"/>
<text text-anchor="middle" x="126.7815" y="-228.8" font-family="Times,serif" font-size="14.00" fill="#000000">up</text>
</g>
<!-- 7a6fe4d5&#45;6b6d&#45;4bfe&#45;afc6&#45;030d737e74e1 -->
<g id="node3" class="node">
<title>7a6fe4d5&#45;6b6d&#45;4bfe&#45;afc6&#45;030d737e74e1</title>
<ellipse fill="none" stroke="#000000" cx="126.7815" cy="-190" rx="33.8683" ry="18"/>
<text text-anchor="middle" x="126.7815" y="-185.8" font-family="Times,serif" font-size="14.00" fill="#000000">(10, 9)</text>
</g>
<!-- 5c4c227f&#45;eac4&#45;4ab8&#45;ae10&#45;ceb2e746d041&#45;&gt;7a6fe4d5&#45;6b6d&#45;4bfe&#45;afc6&#45;030d737e74e1 -->
<g id="edge2" class="edge">
<title>5c4c227f&#45;eac4&#45;4ab8&#45;ae10&#45;ceb2e746d041&#45;&gt;7a6fe4d5&#45;6b6d&#45;4bfe&#45;afc6&#45;030d737e74e1</title>
<path fill="none" stroke="#000000" d="M172.2467,-258.5966C164.0811,-246.2765 152.9941,-229.5488 143.8129,-215.6965"/>
<polygon fill="#000000" stroke="#000000" points="146.5467,-213.4858 138.1046,-207.084 140.7119,-217.353 146.5467,-213.4858"/>
<text text-anchor="middle" x="174.3367" y="-228.8" font-family="Times,serif" font-size="14.00" fill="#000000">down</text>
</g>
<!-- (9, 10) -->
<g id="node4" class="node">
<title>(9, 10)</title>
<ellipse fill="none" stroke="#000000" cx="211.7815" cy="-190" rx="33.8683" ry="18"/>
<text text-anchor="middle" x="211.7815" y="-185.8" font-family="Times,serif" font-size="14.00" fill="#000000">(9, 10)</text>
</g>
<!-- 5c4c227f&#45;eac4&#45;4ab8&#45;ae10&#45;ceb2e746d041&#45;&gt;(9, 10) -->
<g id="edge3" class="edge">
<title>5c4c227f&#45;eac4&#45;4ab8&#45;ae10&#45;ceb2e746d041&#45;&gt;(9, 10)</title>
<path fill="none" stroke="#000000" d="M189.5831,-258.1807C193.4125,-246.4191 198.5054,-230.7766 202.8471,-217.4416"/>
<polygon fill="#000000" stroke="#000000" points="206.2195,-218.3887 205.9873,-207.7964 199.5633,-216.2216 206.2195,-218.3887"/>
<text text-anchor="middle" x="209.1092" y="-228.8" font-family="Times,serif" font-size="14.00" fill="#000000">left</text>
</g>
<!-- (100, 10) -->
<g id="node5" class="node">
<title>(100, 10)</title>
<ellipse fill="none" stroke="#000000" cx="305.7815" cy="-190" rx="42.5542" ry="18"/>
<text text-anchor="middle" x="305.7815" y="-185.8" font-family="Times,serif" font-size="14.00" fill="#000000">(100, 10)</text>
</g>
<!-- 5c4c227f&#45;eac4&#45;4ab8&#45;ae10&#45;ceb2e746d041&#45;&gt;(100, 10) -->
<g id="edge4" class="edge">
<title>5c4c227f&#45;eac4&#45;4ab8&#45;ae10&#45;ceb2e746d041&#45;&gt;(100, 10)</title>
<path fill="none" stroke="#000000" d="M205.0323,-261.0199C224.4389,-247.3399 253.3525,-226.9582 275.2343,-211.5333"/>
<polygon fill="#000000" stroke="#000000" points="277.381,-214.3023 283.5378,-205.68 273.3479,-208.5809 277.381,-214.3023"/>
<text text-anchor="middle" x="266.0022" y="-228.8" font-family="Times,serif" font-size="14.00" fill="#000000">right</text>
</g>
<!-- A1 -->
<g id="node6" class="node">
<title>A1</title>
<ellipse fill="none" stroke="#000000" cx="89.7815" cy="-104" rx=".5" ry=".5"/>
</g>
<!-- 7a6fe4d5&#45;6b6d&#45;4bfe&#45;afc6&#45;030d737e74e1&#45;&gt;A1 -->
<g id="edge5" class="edge">
<title>7a6fe4d5&#45;6b6d&#45;4bfe&#45;afc6&#45;030d737e74e1&#45;&gt;A1</title>
<path fill="none" stroke="#000000" d="M119.1151,-172.1807C111.495,-154.4691 100.0886,-127.9569 93.9876,-113.7763"/>
<polygon fill="#000000" stroke="#000000" points="97.1591,-112.2916 89.9919,-104.489 90.7289,-115.0581 97.1591,-112.2916"/>
</g>
<!-- B1 -->
<g id="node7" class="node">
<title>B1</title>
<ellipse fill="none" stroke="#000000" cx="114.7815" cy="-104" rx=".5" ry=".5"/>
</g>
<!-- 7a6fe4d5&#45;6b6d&#45;4bfe&#45;afc6&#45;030d737e74e1&#45;&gt;B1 -->
<g id="edge6" class="edge">
<title>7a6fe4d5&#45;6b6d&#45;4bfe&#45;afc6&#45;030d737e74e1&#45;&gt;B1</title>
<path fill="none" stroke="#000000" d="M124.2366,-171.7616C121.8265,-154.4892 118.2882,-129.1309 116.2937,-114.8373"/>
<polygon fill="#000000" stroke="#000000" points="119.7346,-114.1703 114.8862,-104.75 112.8018,-115.1378 119.7346,-114.1703"/>
</g>
<!-- C1 -->
<g id="node8" class="node">
<title>C1</title>
<ellipse fill="none" stroke="#000000" cx="139.7815" cy="-104" rx=".5" ry=".5"/>
</g>
<!-- 7a6fe4d5&#45;6b6d&#45;4bfe&#45;afc6&#45;030d737e74e1&#45;&gt;C1 -->
<g id="edge8" class="edge">
<title>7a6fe4d5&#45;6b6d&#45;4bfe&#45;afc6&#45;030d737e74e1&#45;&gt;C1</title>
<path fill="none" stroke="#000000" d="M129.5385,-171.7616C132.1494,-154.4892 135.9827,-129.1309 138.1433,-114.8373"/>
<polygon fill="#000000" stroke="#000000" points="141.6341,-115.1608 139.6681,-104.75 134.7127,-114.1145 141.6341,-115.1608"/>
</g>
<!-- eff5aeb9&#45;322f&#45;4481&#45;aa20&#45;d5225be929e0 -->
<g id="node9" class="node">
<title>eff5aeb9&#45;322f&#45;4481&#45;aa20&#45;d5225be929e0</title>
<ellipse fill="none" stroke="#000000" cx="187.7815" cy="-104" rx="29.0257" ry="18"/>
<text text-anchor="middle" x="187.7815" y="-99.8" font-family="Times,serif" font-size="14.00" fill="#000000">(9, 9)</text>
</g>
<!-- 7a6fe4d5&#45;6b6d&#45;4bfe&#45;afc6&#45;030d737e74e1&#45;&gt;eff5aeb9&#45;322f&#45;4481&#45;aa20&#45;d5225be929e0 -->
<g id="edge7" class="edge">
<title>7a6fe4d5&#45;6b6d&#45;4bfe&#45;afc6&#45;030d737e74e1&#45;&gt;eff5aeb9&#45;322f&#45;4481&#45;aa20&#45;d5225be929e0</title>
<path fill="none" stroke="#000000" d="M138.8332,-173.0092C147.7467,-160.4425 160.0276,-143.1284 170.0581,-128.9871"/>
<polygon fill="#000000" stroke="#000000" points="173.0318,-130.8444 175.9625,-120.6629 167.3222,-126.7945 173.0318,-130.8444"/>
<text text-anchor="middle" x="171.1092" y="-142.8" font-family="Times,serif" font-size="14.00" fill="#000000">left</text>
</g>
<!-- 7ea4dbec&#45;df7f&#45;4878&#45;a159&#45;f4876ec2f6ea -->
<g id="node10" class="node">
<title>7ea4dbec&#45;df7f&#45;4878&#45;a159&#45;f4876ec2f6ea</title>
<ellipse fill="none" stroke="#000000" cx="67.7815" cy="-18" rx="33.8683" ry="18"/>
<text text-anchor="middle" x="67.7815" y="-13.8" font-family="Times,serif" font-size="14.00" fill="#000000">(9, 10)</text>
</g>
<!-- eff5aeb9&#45;322f&#45;4481&#45;aa20&#45;d5225be929e0&#45;&gt;7ea4dbec&#45;df7f&#45;4878&#45;a159&#45;f4876ec2f6ea -->
<g id="edge9" class="edge">
<title>eff5aeb9&#45;322f&#45;4481&#45;aa20&#45;d5225be929e0&#45;&gt;7ea4dbec&#45;df7f&#45;4878&#45;a159&#45;f4876ec2f6ea</title>
<path fill="none" stroke="#000000" d="M168.5014,-90.1826C149.0833,-76.2663 118.8912,-54.6286 96.6236,-38.6702"/>
<polygon fill="#000000" stroke="#000000" points="98.3856,-35.6269 88.2186,-32.6466 94.308,-41.3167 98.3856,-35.6269"/>
<text text-anchor="middle" x="142.7815" y="-56.8" font-family="Times,serif" font-size="14.00" fill="#000000">up</text>
</g>
<!-- 0b7e5b34&#45;1a5d&#45;466f&#45;b242&#45;6638ae2bbb73 -->
<g id="node11" class="node">
<title>0b7e5b34&#45;1a5d&#45;466f&#45;b242&#45;6638ae2bbb73</title>
<ellipse fill="none" stroke="#000000" cx="148.7815" cy="-18" rx="29.0257" ry="18"/>
<text text-anchor="middle" x="148.7815" y="-13.8" font-family="Times,serif" font-size="14.00" fill="#000000">(9, 8)</text>
</g>
<!-- eff5aeb9&#45;322f&#45;4481&#45;aa20&#45;d5225be929e0&#45;&gt;0b7e5b34&#45;1a5d&#45;466f&#45;b242&#45;6638ae2bbb73 -->
<g id="edge10" class="edge">
<title>eff5aeb9&#45;322f&#45;4481&#45;aa20&#45;d5225be929e0&#45;&gt;0b7e5b34&#45;1a5d&#45;466f&#45;b242&#45;6638ae2bbb73</title>
<path fill="none" stroke="#000000" d="M178.6891,-86.5419C175.7248,-80.6905 172.4767,-74.1024 169.6712,-68 166.283,-60.6303 162.8076,-52.5533 159.688,-45.0813"/>
<polygon fill="#000000" stroke="#000000" points="162.8754,-43.6297 155.8292,-35.7176 156.4034,-46.2969 162.8754,-43.6297"/>
<text text-anchor="middle" x="185.3367" y="-56.8" font-family="Times,serif" font-size="14.00" fill="#000000">down</text>
</g>
<!-- d1215545&#45;704b&#45;4526&#45;a16e&#45;05d31dc25984 -->
<g id="node12" class="node">
<title>d1215545&#45;704b&#45;4526&#45;a16e&#45;05d31dc25984</title>
<ellipse fill="none" stroke="#000000" cx="225.7815" cy="-18" rx="29.0257" ry="18"/>
<text text-anchor="middle" x="225.7815" y="-13.8" font-family="Times,serif" font-size="14.00" fill="#000000">(8, 9)</text>
</g>
<!-- eff5aeb9&#45;322f&#45;4481&#45;aa20&#45;d5225be929e0&#45;&gt;d1215545&#45;704b&#45;4526&#45;a16e&#45;05d31dc25984 -->
<g id="edge11" class="edge">
<title>eff5aeb9&#45;322f&#45;4481&#45;aa20&#45;d5225be929e0&#45;&gt;d1215545&#45;704b&#45;4526&#45;a16e&#45;05d31dc25984</title>
<path fill="none" stroke="#000000" d="M195.4714,-86.5966C200.7765,-74.5902 207.9314,-58.3977 213.9573,-44.76"/>
<polygon fill="#000000" stroke="#000000" points="217.2628,-45.939 218.1031,-35.3775 210.86,-43.1098 217.2628,-45.939"/>
<text text-anchor="middle" x="219.1092" y="-56.8" font-family="Times,serif" font-size="14.00" fill="#000000">left</text>
</g>
<!-- 04058148&#45;015b&#45;4faf&#45;9bc9&#45;2f05562a419c -->
<g id="node13" class="node">
<title>04058148&#45;015b&#45;4faf&#45;9bc9&#45;2f05562a419c</title>
<ellipse fill="none" stroke="#000000" cx="306.7815" cy="-18" rx="33.8683" ry="18"/>
<text text-anchor="middle" x="306.7815" y="-13.8" font-family="Times,serif" font-size="14.00" fill="#000000">(10, 9)</text>
</g>
<!-- eff5aeb9&#45;322f&#45;4481&#45;aa20&#45;d5225be929e0&#45;&gt;04058148&#45;015b&#45;4faf&#45;9bc9&#45;2f05562a419c -->
<g id="edge12" class="edge">
<title>eff5aeb9&#45;322f&#45;4481&#45;aa20&#45;d5225be929e0&#45;&gt;04058148&#45;015b&#45;4faf&#45;9bc9&#45;2f05562a419c</title>
<path fill="none" stroke="#000000" d="M206.9009,-90.1826C226.1573,-76.2663 256.0977,-54.6286 278.1798,-38.6702"/>
<polygon fill="#000000" stroke="#000000" points="280.4598,-41.3408 286.5147,-32.6466 276.3596,-35.6673 280.4598,-41.3408"/>
<text text-anchor="middle" x="268.0022" y="-56.8" font-family="Times,serif" font-size="14.00" fill="#000000">right</text>
</g>
</g>
</svg>
